<svg width="36" height="36" viewBox="0 0 36 36" fill="none" xmlns="http://www.w3.org/2000/svg">
<path d="M31.5 24.0528V11.9478C31.5 10.8708 30.9255 9.87476 29.9925 9.33626L19.509 3.28376C18.576 2.74526 17.4255 2.74526 16.4925 3.28376L6.0075 9.33476C5.0745 9.87476 4.5 10.8693 4.5 11.9478V24.0528C4.5 25.1298 5.0745 26.1258 6.0075 26.6643L16.491 32.7168C17.424 33.2553 18.5745 33.2553 19.5075 32.7168L29.991 26.6643C30.9255 26.1258 31.5 25.1313 31.5 24.0528Z" stroke="#315BFF" stroke-width="2" stroke-linecap="round" stroke-linejoin="round"/>
<path fill-rule="evenodd" clip-rule="evenodd" d="M18 1.92529C18.5523 1.92529 19 2.37301 19 2.92529V16.269L30.5804 9.58903C31.0588 9.31307 31.6703 9.47718 31.9462 9.95558C32.2222 10.434 32.0581 11.0455 31.5797 11.3215L20.0014 18.0002L31.5797 24.679C32.0581 24.955 32.2222 25.5665 31.9462 26.0449C31.6703 26.5233 31.0588 26.6874 30.5804 26.4115L19 19.7315V33.0753C19 33.6276 18.5523 34.0753 18 34.0753C17.4477 34.0753 17 33.6276 17 33.0753V19.7315L5.41969 26.4115C4.94129 26.6874 4.32977 26.5233 4.05381 26.0449C3.77785 25.5665 3.94196 24.955 4.42036 24.679L15.9987 18.0002L4.42036 11.3215C3.94196 11.0455 3.77785 10.434 4.05381 9.95558C4.32977 9.47718 4.94129 9.31307 5.41969 9.58903L17 16.269V2.92529C17 2.37301 17.4477 1.92529 18 1.92529Z" fill="#315BFF"/>
</svg>
