<svg width="16" height="16" viewBox="0 0 16 16" fill="none" xmlns="http://www.w3.org/2000/svg">
<path fill-rule="evenodd" clip-rule="evenodd" d="M7.29289 0.625901C6.90237 1.01643 6.90237 1.64959 7.29289 2.04011L13.2525 7.99967L7.29289 13.9592C6.90237 14.3498 6.90237 14.9829 7.29289 15.3734C7.68342 15.764 8.31658 15.764 8.70711 15.3734L15.3738 8.70678C15.7643 8.31626 15.7643 7.68309 15.3738 7.29257L8.70711 0.625901C8.31658 0.235377 7.68342 0.235377 7.29289 0.625901Z" fill="#315BFF"/>
<path fill-rule="evenodd" clip-rule="evenodd" d="M15.6667 8C15.6667 7.44772 15.2189 7 14.6667 7H1.33333C0.781045 7 0.33333 7.44772 0.33333 8C0.33333 8.55228 0.781045 9 1.33333 9H14.6667C15.2189 9 15.6667 8.55228 15.6667 8Z" fill="#315BFF"/>
</svg>
