<svg width="36" height="36" viewBox="0 0 36 36" fill="none" xmlns="http://www.w3.org/2000/svg">
<path fill-rule="evenodd" clip-rule="evenodd" d="M33.7745 12.678C34.0215 13.172 33.8213 13.7727 33.3273 14.0196L29.5773 15.8946C29.0833 16.1416 28.4826 15.9414 28.2356 15.4474C27.9886 14.9535 28.1889 14.3528 28.6829 14.1058L32.4328 12.2308C32.9268 11.9838 33.5275 12.184 33.7745 12.678Z" fill="#315BFF"/>
<path fill-rule="evenodd" clip-rule="evenodd" d="M2.2255 12.678C2.47249 12.184 3.07317 11.9838 3.56715 12.2308L7.31715 14.1058C7.81112 14.3528 8.01135 14.9535 7.76436 15.4474C7.51737 15.9414 6.9167 16.1416 6.42272 15.8946L2.67272 14.0196C2.17874 13.7727 1.97852 13.172 2.2255 12.678Z" fill="#315BFF"/>
<path fill-rule="evenodd" clip-rule="evenodd" d="M22.46 20.8799C22.46 20.3276 22.9077 19.8799 23.46 19.8799H27.18C27.7323 19.8799 28.18 20.3276 28.18 20.8799C28.18 21.4322 27.7323 21.8799 27.18 21.8799H23.46C22.9077 21.8799 22.46 21.4322 22.46 20.8799Z" fill="#315BFF"/>
<path fill-rule="evenodd" clip-rule="evenodd" d="M7.70007 20.8799C7.70007 20.3276 8.14779 19.8799 8.70007 19.8799H12.4201C12.9724 19.8799 13.4201 20.3276 13.4201 20.8799C13.4201 21.4322 12.9724 21.8799 12.4201 21.8799H8.70007C8.14779 21.8799 7.70007 21.4322 7.70007 20.8799Z" fill="#315BFF"/>
<path fill-rule="evenodd" clip-rule="evenodd" d="M2.11554 18.75C2.11554 16.1262 4.24176 14 6.86554 14H29.1345C31.7583 14 33.8845 16.1262 33.8845 18.75V26.031C33.8845 26.5833 33.4368 27.031 32.8845 27.031C32.3323 27.031 31.8845 26.5833 31.8845 26.031V18.75C31.8845 17.2308 30.6538 16 29.1345 16H6.86554C5.34632 16 4.11554 17.2308 4.11554 18.75V25.6365C4.11554 26.1888 3.66782 26.6365 3.11554 26.6365C2.56325 26.6365 2.11554 26.1888 2.11554 25.6365V18.75Z" fill="#315BFF"/>
<path fill-rule="evenodd" clip-rule="evenodd" d="M32.8846 24.6533C33.4368 24.6533 33.8846 25.101 33.8846 25.6533V28.3278C33.8846 29.9076 32.6043 31.1878 31.0246 31.1878H27.3031C25.7233 31.1878 24.4431 29.9076 24.4431 28.3278V26.4678C24.4431 25.9155 24.8908 25.4678 25.4431 25.4678C25.9953 25.4678 26.4431 25.9155 26.4431 26.4678V28.3278C26.4431 28.803 26.8278 29.1878 27.3031 29.1878H31.0246C31.4998 29.1878 31.8846 28.803 31.8846 28.3278V25.6533C31.8846 25.101 32.3323 24.6533 32.8846 24.6533Z" fill="#315BFF"/>
<path fill-rule="evenodd" clip-rule="evenodd" d="M3.11554 24.6514C3.66782 24.6514 4.11554 25.0991 4.11554 25.6514V28.3259C4.11554 28.8011 4.50032 29.1859 4.97554 29.1859H8.69704C9.17226 29.1859 9.55704 28.8011 9.55704 28.3259V26.4659C9.55704 25.9136 10.0048 25.4659 10.557 25.4659C11.1093 25.4659 11.557 25.9136 11.557 26.4659V28.3259C11.557 29.9057 10.2768 31.1859 8.69704 31.1859H4.97554C3.39576 31.1859 2.11554 29.9057 2.11554 28.3259V25.6514C2.11554 25.0991 2.56325 24.6514 3.11554 24.6514Z" fill="#315BFF"/>
<path fill-rule="evenodd" clip-rule="evenodd" d="M9.56006 26.46C9.56006 25.9077 10.0078 25.46 10.5601 25.46H25.4401C25.9923 25.46 26.4401 25.9077 26.4401 26.46C26.4401 27.0122 25.9923 27.46 25.4401 27.46H10.5601C10.0078 27.46 9.56006 27.0122 9.56006 26.46Z" fill="#315BFF"/>
<path fill-rule="evenodd" clip-rule="evenodd" d="M7.39477 8.35095C7.8966 6.20183 9.81369 4.68213 12.0195 4.68213H24.1395C26.387 4.68213 28.3288 6.25869 28.7888 8.45924C28.7888 8.45935 28.7888 8.45913 28.7888 8.45924L30.1148 14.7937C30.2279 15.3343 29.8815 15.8643 29.3409 15.9774C28.8003 16.0906 28.2704 15.7441 28.1572 15.2035L26.8312 8.86902C26.5651 7.59574 25.4409 6.68213 24.1395 6.68213H12.0195C10.7425 6.68213 9.63263 7.56225 9.34233 8.80594L7.84074 15.2278C7.715 15.7656 7.1771 16.0996 6.63932 15.9739C6.10155 15.8481 5.76753 15.3102 5.89327 14.7724L7.39477 8.35095C7.3948 8.35082 7.39474 8.35107 7.39477 8.35095Z" fill="#315BFF"/>
</svg>
