<svg width="16" height="16" viewBox="0 0 16 16" fill="none" xmlns="http://www.w3.org/2000/svg">
<path fill-rule="evenodd" clip-rule="evenodd" d="M3.33333 8.33301C3.14924 8.33301 3 8.48225 3 8.66634V13.333C3 13.5171 3.14924 13.6663 3.33333 13.6663H12.6667C12.8508 13.6663 13 13.5171 13 13.333V8.66634C13 8.48225 12.8508 8.33301 12.6667 8.33301H3.33333ZM1 8.66634C1 7.37768 2.04467 6.33301 3.33333 6.33301H12.6667C13.9553 6.33301 15 7.37768 15 8.66634V13.333C15 14.6217 13.9553 15.6663 12.6667 15.6663H3.33333C2.04467 15.6663 1 14.6217 1 13.333V8.66634Z" fill="#315BFF"/>
<path fill-rule="evenodd" clip-rule="evenodd" d="M8 2.33301C7.38116 2.33301 6.78766 2.57884 6.35008 3.01643C5.91249 3.45401 5.66666 4.0475 5.66666 4.66634V7.33301C5.66666 7.88529 5.21895 8.33301 4.66666 8.33301C4.11438 8.33301 3.66666 7.88529 3.66666 7.33301V4.66634C3.66666 3.51707 4.12321 2.41487 4.93587 1.60221C5.74852 0.789554 6.85072 0.333008 8 0.333008C9.14927 0.333008 10.2515 0.789554 11.0641 1.60221C11.8768 2.41487 12.3333 3.51707 12.3333 4.66634V7.33301C12.3333 7.88529 11.8856 8.33301 11.3333 8.33301C10.781 8.33301 10.3333 7.88529 10.3333 7.33301V4.66634C10.3333 4.0475 10.0875 3.45401 9.64991 3.01643C9.21233 2.57884 8.61883 2.33301 8 2.33301Z" fill="#315BFF"/>
</svg>
