<svg width="30" height="30" viewBox="0 0 30 30" fill="none" xmlns="http://www.w3.org/2000/svg">
<path fill-rule="evenodd" clip-rule="evenodd" d="M0.493896 15.006C0.493896 7.02571 7.01961 0.5 14.9999 0.5C15.5522 0.5 15.9999 0.947715 15.9999 1.5C15.9999 2.05228 15.5522 2.5 14.9999 2.5C8.12418 2.5 2.4939 8.13028 2.4939 15.006V19.8855C2.4939 20.4378 2.04618 20.8855 1.4939 20.8855C0.941612 20.8855 0.493896 20.4378 0.493896 19.8855V15.006Z" fill="#315BFF"/>
<path fill-rule="evenodd" clip-rule="evenodd" d="M13.9999 1.5C13.9999 0.947715 14.4476 0.5 14.9999 0.5C22.9802 0.5 29.5059 7.02571 29.5059 15.006V19.8855C29.5059 20.4378 29.0582 20.8855 28.5059 20.8855C27.9536 20.8855 27.5059 20.4378 27.5059 19.8855V15.006C27.5059 8.13028 21.8756 2.5 14.9999 2.5C14.4476 2.5 13.9999 2.05228 13.9999 1.5Z" fill="#315BFF"/>
<path fill-rule="evenodd" clip-rule="evenodd" d="M20.8204 20.1422C20.8204 18.6674 22.0166 17.4712 23.4914 17.4712H28.5059C29.0582 17.4712 29.5059 17.9189 29.5059 18.4712V25.1567C29.5059 27.5555 27.5612 29.5002 25.1624 29.5002H23.4914C22.0139 29.5002 20.8204 28.3028 20.8204 26.8277V20.1422ZM23.4914 19.4712C23.1212 19.4712 22.8204 19.772 22.8204 20.1422V26.8277C22.8204 27.2006 23.1209 27.5002 23.4914 27.5002H25.1624C26.4566 27.5002 27.5059 26.4509 27.5059 25.1567V19.4712H23.4914Z" fill="#315BFF"/>
<path fill-rule="evenodd" clip-rule="evenodd" d="M0.493896 18.4712C0.493896 17.9189 0.941612 17.4712 1.4939 17.4712H6.5084C7.98318 17.4712 9.1794 18.6674 9.1794 20.1422V26.8277C9.1794 28.3028 7.98585 29.5002 6.5084 29.5002H4.8374C2.43861 29.5002 0.493896 27.5555 0.493896 25.1567V18.4712ZM2.4939 19.4712V25.1567C2.4939 26.4509 3.54318 27.5002 4.8374 27.5002H6.5084C6.87894 27.5002 7.1794 27.2006 7.1794 26.8277V20.1422C7.1794 19.772 6.87861 19.4712 6.5084 19.4712H2.4939Z" fill="#315BFF"/>
</svg>
