<svg width="36" height="36" viewBox="0 0 36 36" fill="none" xmlns="http://www.w3.org/2000/svg">
<path fill-rule="evenodd" clip-rule="evenodd" d="M4.5 6.5C5.05228 6.5 5.5 6.94772 5.5 7.5V27.75C5.5 28.8552 6.39478 29.75 7.5 29.75H27C28.1052 29.75 29 28.8552 29 27.75C29 27.1977 29.4477 26.75 30 26.75C30.5523 26.75 31 27.1977 31 27.75C31 29.9598 29.2098 31.75 27 31.75H7.5C5.29022 31.75 3.5 29.9598 3.5 27.75V7.5C3.5 6.94772 3.94772 6.5 4.5 6.5Z" fill="#315BFF"/>
<path fill-rule="evenodd" clip-rule="evenodd" d="M3.5 7.5C3.5 5.70572 4.95572 4.25 6.75 4.25H25.5C26.0523 4.25 26.5 4.69772 26.5 5.25C26.5 5.80228 26.0523 6.25 25.5 6.25H6.75C6.06028 6.25 5.5 6.81028 5.5 7.5C5.5 8.18972 6.06028 8.75 6.75 8.75H27C29.2098 8.75 31 10.5402 31 12.75C31 13.3023 30.5523 13.75 30 13.75C29.4477 13.75 29 13.3023 29 12.75C29 11.6448 28.1052 10.75 27 10.75H6.75C4.95572 10.75 3.5 9.29428 3.5 7.5Z" fill="#315BFF"/>
<path fill-rule="evenodd" clip-rule="evenodd" d="M30 11.75C30.5523 11.75 31 12.1977 31 12.75V17.25C31 17.8023 30.5523 18.25 30 18.25C29.4477 18.25 29 17.8023 29 17.25V12.75C29 12.1977 29.4477 11.75 30 11.75Z" fill="#315BFF"/>
<path fill-rule="evenodd" clip-rule="evenodd" d="M30 22.25C30.5523 22.25 31 22.6977 31 23.25V27.75C31 28.3023 30.5523 28.75 30 28.75C29.4477 28.75 29 28.3023 29 27.75V23.25C29 22.6977 29.4477 22.25 30 22.25Z" fill="#315BFF"/>
<path fill-rule="evenodd" clip-rule="evenodd" d="M27 18.25C25.8948 18.25 25 19.1448 25 20.25C25 21.3552 25.8948 22.25 27 22.25H30C30.2757 22.25 30.5 22.0257 30.5 21.75V18.75C30.5 18.4743 30.2757 18.25 30 18.25H27ZM23 20.25C23 18.0402 24.7902 16.25 27 16.25H30C31.3803 16.25 32.5 17.3697 32.5 18.75V21.75C32.5 23.1303 31.3803 24.25 30 24.25H27C24.7902 24.25 23 22.4598 23 20.25Z" fill="#315BFF"/>
</svg>
